<svg width="150" height="100" viewBox="0 0 150 100" fill="none" xmlns="http://www.w3.org/2000/svg">
<g clip-path="url(#clip0_198_9332)">
<path d="M5 58.7215H11.1346V47.5721H22.0707C23.434 47.5721 24.1156 48.2369 24.1156 49.5663V58.7215H30.2502V50.7965C30.2502 48.7505 29.8921 47.1405 29.176 45.9621C28.4599 44.788 27.3037 43.9247 25.6989 43.3809C27.1656 42.6989 28.2873 41.5507 29.0725 39.9277C29.8576 38.309 30.2459 36.3407 30.2459 34.0228V33.3581H24.1113V34.5321C24.1113 37.0875 23.5505 38.9824 22.4245 40.2083C21.2985 41.4341 19.5427 42.0514 17.1613 42.0514H11.1303V28.7049H5V58.7215ZM38.0155 31.3639C39.1415 31.3639 40.0604 31.0229 40.7765 30.3409C41.4926 29.6589 41.8507 28.774 41.8507 27.6819C41.8507 26.5899 41.5013 25.705 40.8024 25.023C40.1035 24.341 39.176 24 38.0155 24C36.855 24 35.9706 24.341 35.2545 25.023C34.5384 25.705 34.1803 26.5899 34.1803 27.6819C34.1803 28.774 34.5384 29.6589 35.2545 30.3409C35.9706 31.0229 36.8895 31.3639 38.0155 31.3639ZM136.708 53.5072H126.997C125.634 53.5072 124.952 52.8425 124.952 51.513V40.5708C124.952 39.2414 125.634 38.5766 126.997 38.5766H136.708C138.072 38.5766 138.753 39.2414 138.753 40.5708V51.513C138.753 52.8425 138.072 53.5072 136.708 53.5072ZM130.522 59.438C132.394 59.438 134.012 59.1402 135.38 58.5445C136.743 57.9489 137.985 57.0036 139.111 55.7043V58.7215H144.888V33.3581H139.111V36.3753C137.985 35.0803 136.743 34.135 135.38 33.535C134.016 32.9394 132.399 32.6415 130.522 32.6415C126.669 32.6415 123.671 33.8588 121.527 36.2976C119.379 38.7364 118.309 41.9823 118.309 46.0398C118.309 50.0972 119.383 53.3432 121.527 55.782C123.675 58.2208 126.722 59.438 130.522 59.438ZM112.122 58.7215H117.386V53.3001H111.864C110.5 53.3001 109.819 52.6353 109.819 51.3059V38.7752H117.381V33.3537H109.819V27.8805H104.198V31.2042C104.198 32.6372 103.516 33.3537 102.153 33.3537H98.7273V38.7752H103.684V50.4339C103.684 53.0238 104.426 55.0525 105.906 56.5201C107.39 57.9877 109.456 58.7172 112.114 58.7172M75.5694 58.7172H87.6315C94.547 58.7172 98.0068 56.2537 98.0068 51.3015C98.0068 49.0527 97.3338 47.339 95.9879 46.1606C94.6419 44.9866 92.4201 44.1751 89.3183 43.7305L84.2062 42.9622C82.7394 42.7248 81.786 42.4744 81.3459 42.2197C80.9016 41.9651 80.6816 41.5118 80.6816 40.8644V40.4025C80.6816 39.8241 80.8369 39.4054 81.1432 39.1507C81.4495 38.8961 81.9758 38.7666 82.7264 38.7666H96.32V33.3451H85.0776C81.6005 33.3451 78.9775 33.9839 77.2044 35.2616C75.4314 36.5393 74.547 38.4428 74.547 40.9636C74.547 43.1478 75.2372 44.8182 76.6177 45.975C77.9982 47.1362 80.2545 47.952 83.3908 48.4311L88.3477 49.1476C89.4046 49.2858 90.1682 49.4196 90.647 49.5577C91.1216 49.6958 91.4495 49.8814 91.6177 50.1188C91.786 50.3562 91.8722 50.6972 91.8722 51.1418V51.6512C91.8722 52.2296 91.7083 52.6483 91.3848 52.9029C91.0612 53.1576 90.5435 53.2871 89.8274 53.2871H75.5694V58.7086V58.7172ZM46.182 58.7172H52.3166V40.5622C52.3166 39.2327 52.9982 38.568 54.3615 38.568H63.3045C64.6678 38.568 65.3494 39.2327 65.3494 40.5622V58.7172H71.484V41.4341C71.484 38.7752 70.6082 36.6429 68.8524 35.0415C67.0966 33.4401 64.5858 32.6372 61.3157 32.6372C59.3399 32.6372 57.5409 32.9609 55.9232 33.6084C54.3054 34.2559 52.9853 35.1753 51.9629 36.3709V33.3537H46.1863V58.7172H46.182ZM34.9396 58.7172H41.0742V33.3581H34.9396V58.7215V58.7172Z" fill="black"/>
</g>
<path d="M109.645 74.096C108.741 74.096 108.053 73.936 107.581 73.616C107.109 73.288 106.821 72.784 106.717 72.104L108.013 72.056C108.061 72.464 108.213 72.764 108.469 72.956C108.733 73.148 109.117 73.244 109.621 73.244C110.101 73.244 110.469 73.164 110.725 73.004C110.989 72.844 111.121 72.616 111.121 72.32C111.121 72.072 111.041 71.88 110.881 71.744C110.729 71.608 110.525 71.508 110.269 71.444C110.021 71.372 109.745 71.312 109.441 71.264C109.137 71.208 108.833 71.144 108.529 71.072C108.225 71 107.945 70.896 107.689 70.76C107.441 70.624 107.237 70.44 107.077 70.208C106.925 69.968 106.849 69.652 106.849 69.26C106.849 68.66 107.085 68.204 107.557 67.892C108.029 67.572 108.725 67.412 109.645 67.412C110.205 67.412 110.681 67.484 111.073 67.628C111.473 67.764 111.785 67.972 112.009 68.252C112.241 68.532 112.385 68.88 112.441 69.296L111.145 69.356C111.121 68.996 110.981 68.724 110.725 68.54C110.477 68.356 110.125 68.264 109.669 68.264C109.189 68.264 108.821 68.348 108.565 68.516C108.309 68.684 108.181 68.92 108.181 69.224C108.181 69.472 108.257 69.668 108.409 69.812C108.569 69.948 108.773 70.052 109.021 70.124C109.277 70.196 109.557 70.256 109.861 70.304C110.165 70.352 110.469 70.412 110.773 70.484C111.077 70.556 111.353 70.66 111.601 70.796C111.857 70.924 112.061 71.108 112.213 71.348C112.373 71.588 112.453 71.904 112.453 72.296C112.453 72.88 112.213 73.328 111.733 73.64C111.261 73.944 110.565 74.096 109.645 74.096Z" fill="black"/>
<path d="M102.27 74.096C101.63 74.096 101.082 73.988 100.626 73.772C100.178 73.556 99.8341 73.24 99.5941 72.824C99.3541 72.4 99.2341 71.892 99.2341 71.3V70.22C99.2341 69.636 99.3581 69.136 99.6061 68.72C99.8621 68.304 100.226 67.984 100.698 67.76C101.17 67.536 101.734 67.424 102.39 67.424C103.39 67.424 104.158 67.684 104.694 68.204C105.23 68.724 105.498 69.468 105.498 70.436V71.12H100.254V70.376H104.49L104.31 70.664V70.148C104.31 69.596 104.138 69.164 103.794 68.852C103.458 68.532 102.998 68.372 102.414 68.372C101.798 68.372 101.322 68.532 100.986 68.852C100.658 69.172 100.494 69.62 100.494 70.196V71.432C100.494 72 100.654 72.436 100.974 72.74C101.302 73.044 101.762 73.196 102.354 73.196C102.874 73.196 103.294 73.092 103.614 72.884C103.934 72.676 104.138 72.38 104.226 71.996L105.414 72.068C105.262 72.716 104.91 73.216 104.358 73.568C103.814 73.92 103.118 74.096 102.27 74.096Z" fill="black"/>
<path d="M97.5231 67.52V74H96.2631V67.52H97.5231ZM97.5831 65.156V66.68H96.2031V65.156H97.5831Z" fill="black"/>
<path d="M91.6429 74.096C91.0029 74.096 90.4469 73.984 89.9749 73.76C89.5109 73.536 89.1549 73.216 88.9069 72.8C88.6589 72.376 88.5349 71.872 88.5349 71.288V70.232C88.5349 69.656 88.6589 69.156 88.9069 68.732C89.1629 68.308 89.5229 67.984 89.9869 67.76C90.4509 67.536 91.0029 67.424 91.6429 67.424C92.5629 67.424 93.3029 67.636 93.8629 68.06C94.4309 68.476 94.7509 69.048 94.8229 69.776L93.5989 69.872C93.5029 69.376 93.2989 69.004 92.9869 68.756C92.6749 68.5 92.2429 68.372 91.6909 68.372C91.1069 68.372 90.6429 68.536 90.2989 68.864C89.9629 69.192 89.7949 69.644 89.7949 70.22V71.3C89.7949 71.876 89.9629 72.328 90.2989 72.656C90.6349 72.984 91.0989 73.148 91.6909 73.148C92.2269 73.148 92.6549 73.02 92.9749 72.764C93.2949 72.508 93.5029 72.136 93.5989 71.648L94.8229 71.744C94.7509 72.464 94.4309 73.036 93.8629 73.46C93.2949 73.884 92.5549 74.096 91.6429 74.096Z" fill="black"/>
<path d="M85.6656 70.256C85.6656 69.608 85.5376 69.136 85.2816 68.84C85.0256 68.544 84.6216 68.396 84.0696 68.396C83.4296 68.396 82.9376 68.616 82.5936 69.056C82.2496 69.496 82.0776 70.132 82.0776 70.964L81.5616 71.84V71.036C81.5616 69.868 81.8176 68.976 82.3296 68.36C82.8496 67.736 83.5856 67.424 84.5376 67.424C85.3536 67.424 85.9536 67.644 86.3376 68.084C86.7296 68.524 86.9256 69.204 86.9256 70.124V74H85.6656V70.256ZM80.8176 67.52H81.7296L82.0776 69.596V74H80.8176V67.52Z" fill="black"/>
<path d="M76.0084 74.096C75.3684 74.096 74.8204 73.988 74.3644 73.772C73.9164 73.556 73.5724 73.24 73.3324 72.824C73.0924 72.4 72.9724 71.892 72.9724 71.3V70.22C72.9724 69.636 73.0964 69.136 73.3444 68.72C73.6004 68.304 73.9644 67.984 74.4364 67.76C74.9084 67.536 75.4724 67.424 76.1284 67.424C77.1284 67.424 77.8964 67.684 78.4324 68.204C78.9684 68.724 79.2364 69.468 79.2364 70.436V71.12H73.9924V70.376H78.2284L78.0484 70.664V70.148C78.0484 69.596 77.8764 69.164 77.5324 68.852C77.1964 68.532 76.7364 68.372 76.1524 68.372C75.5364 68.372 75.0604 68.532 74.7244 68.852C74.3964 69.172 74.2324 69.62 74.2324 70.196V71.432C74.2324 72 74.3924 72.436 74.7124 72.74C75.0404 73.044 75.5004 73.196 76.0924 73.196C76.6124 73.196 77.0324 73.092 77.3524 72.884C77.6724 72.676 77.8764 72.38 77.9644 71.996L79.1524 72.068C79.0004 72.716 78.6484 73.216 78.0964 73.568C77.5524 73.92 76.8564 74.096 76.0084 74.096Z" fill="black"/>
<path d="M68.6293 72.08C67.7573 72.08 67.0733 71.892 66.5773 71.516C66.0813 71.14 65.8333 70.616 65.8333 69.944V69.56C65.8333 68.872 66.0813 68.344 66.5773 67.976C67.0733 67.608 67.7573 67.424 68.6293 67.424C69.5093 67.424 70.1933 67.608 70.6813 67.976C71.1693 68.344 71.4133 68.872 71.4133 69.56V69.944C71.4133 70.616 71.1693 71.14 70.6813 71.516C70.1933 71.892 69.5093 72.08 68.6293 72.08ZM67.5853 76.244C66.9293 76.244 66.4293 76.112 66.0853 75.848C65.7413 75.592 65.5693 75.212 65.5693 74.708C65.5693 74.212 65.7373 73.836 66.0733 73.58C66.4093 73.316 66.9093 73.184 67.5733 73.184H69.6733C70.3293 73.184 70.8293 73.316 71.1733 73.58C71.5173 73.836 71.6893 74.212 71.6893 74.708C71.6893 75.212 71.5173 75.592 71.1733 75.848C70.8293 76.112 70.3293 76.244 69.6733 76.244H67.5853ZM69.4693 75.476C70.1333 75.476 70.4653 75.22 70.4653 74.708C70.4653 74.204 70.1333 73.952 69.4693 73.952H67.8013C67.1213 73.952 66.7813 74.204 66.7813 74.708C66.7813 75.228 67.1213 75.484 67.8013 75.476H69.4693ZM67.1893 73.496C66.8533 73.496 66.5893 73.42 66.3973 73.268C66.2053 73.108 66.1093 72.896 66.1093 72.632C66.1093 72.36 66.2013 72.148 66.3853 71.996C66.5693 71.844 66.8413 71.768 67.2013 71.768H68.6293V72.08H67.8733C67.6573 72.08 67.4893 72.128 67.3693 72.224C67.2493 72.32 67.1933 72.456 67.2013 72.632C67.2013 72.816 67.2533 72.956 67.3573 73.052C67.4693 73.14 67.6333 73.184 67.8493 73.184H68.6293V73.496H67.1893ZM68.6293 71.216C69.1253 71.216 69.5093 71.104 69.7813 70.88C70.0533 70.648 70.1893 70.324 70.1893 69.908V69.584C70.1893 69.168 70.0533 68.848 69.7813 68.624C69.5093 68.392 69.1253 68.276 68.6293 68.276C68.1413 68.276 67.7573 68.392 67.4773 68.624C67.2053 68.848 67.0693 69.168 67.0693 69.584V69.908C67.0693 70.316 67.2053 70.636 67.4773 70.868C67.7573 71.1 68.1413 71.216 68.6293 71.216ZM70.0093 67.832L71.7493 67.244H72.0493V68.252L70.0093 68.396V67.832Z" fill="black"/>
<path d="M59.9706 65.6H61.9146L64.8186 74H63.5226L60.9667 66.476H60.9186L58.3506 74H57.0667L59.9706 65.6ZM58.8186 70.94H63.0427V71.876H58.8186V70.94Z" fill="black"/>
<path d="M50.0208 67.52H50.9328L51.2808 69.932V74H50.0208V67.52ZM50.9208 70.496C50.9208 69.488 51.1128 68.724 51.4968 68.204C51.8888 67.684 52.4528 67.424 53.1888 67.424C53.3168 67.424 53.4488 67.432 53.5848 67.448C53.7208 67.464 53.8528 67.488 53.9808 67.52L53.9088 68.6C53.6608 68.536 53.3968 68.504 53.1168 68.504C52.5088 68.504 52.0488 68.7 51.7368 69.092C51.4328 69.484 51.2808 70.072 51.2808 70.856L50.9208 70.496Z" fill="black"/>
<path d="M45.0757 74.096C44.4037 74.096 43.8237 73.984 43.3357 73.76C42.8557 73.536 42.4837 73.216 42.2197 72.8C41.9637 72.376 41.8357 71.872 41.8357 71.288V70.232C41.8357 69.648 41.9637 69.148 42.2197 68.732C42.4837 68.308 42.8557 67.984 43.3357 67.76C43.8237 67.536 44.4037 67.424 45.0757 67.424C45.7477 67.424 46.3237 67.536 46.8037 67.76C47.2917 67.984 47.6637 68.308 47.9197 68.732C48.1757 69.148 48.3037 69.648 48.3037 70.232V71.288C48.3037 71.872 48.1757 72.376 47.9197 72.8C47.6637 73.216 47.2917 73.536 46.8037 73.76C46.3237 73.984 45.7477 74.096 45.0757 74.096ZM45.0757 73.1C45.6837 73.1 46.1637 72.936 46.5157 72.608C46.8757 72.28 47.0557 71.836 47.0557 71.276V70.244C47.0557 69.676 46.8757 69.232 46.5157 68.912C46.1637 68.584 45.6837 68.42 45.0757 68.42C44.4677 68.42 43.9837 68.584 43.6237 68.912C43.2717 69.24 43.0957 69.684 43.0957 70.244V71.276C43.0957 71.836 43.2717 72.28 43.6237 72.608C43.9837 72.936 44.4677 73.1 45.0757 73.1Z" fill="black"/>
<path d="M38.4171 67.256C38.4171 66.488 38.6011 65.904 38.9691 65.504C39.3451 65.104 39.8851 64.904 40.5891 64.904C40.7971 64.904 41.0171 64.924 41.2491 64.964C41.4891 64.996 41.7091 65.044 41.9091 65.108L41.7411 65.996C41.5971 65.948 41.4571 65.912 41.3211 65.888C41.1851 65.864 41.0491 65.852 40.9131 65.852C40.4891 65.852 40.1771 65.964 39.9771 66.188C39.7771 66.412 39.6771 66.768 39.6771 67.256V74H38.4171V67.256ZM37.3491 67.52H41.2611V68.444H37.3491V67.52Z" fill="black"/>
<defs>
<clipPath id="clip0_198_9332">
<rect width="140" height="35.4665" fill="white" transform="translate(5 24)"/>
</clipPath>
</defs>
</svg>
